<?xml version="1.0" encoding="UTF-8"?>
<svg version="1.1" xmlns="http://www.w3.org/2000/svg" width="67" height="67">
<path d="M0 0 C-0.54433461 4.18927558 -1.48351813 7.41999849 -3.43359375 11.16015625 C-4.15893311 12.58859863 -4.15893311 12.58859863 -4.89892578 14.04589844 C-5.40665527 15.04137695 -5.91438477 16.03685547 -6.4375 17.0625 C-10.61122345 25.5106143 -13.57892032 32.51254847 -14 42 C-14.20408081 44.10458337 -14.41223408 46.20877692 -14.625 48.3125 C-14.74875 49.859375 -14.8725 51.40625 -15 53 C-18.96 53 -22.92 53 -27 53 C-27.01417969 51.77925781 -27.02835938 50.55851562 -27.04296875 49.30078125 C-27.39506082 34.47513608 -31.45851418 23.50316268 -38.32055664 10.46606445 C-40.21032363 6.83718066 -41.18199815 4.09000923 -42 0 C-38.04 0 -34.08 0 -30 0 C-26.7 6.93 -23.4 13.86 -20 21 C-18.19747702 16.33683832 -18.19747702 16.33683832 -16.41113281 11.66748047 C-12.72671397 2.29889269 -10.36113762 -1.50403611 0 0 Z " fill="#000000" transform="translate(55,7)"/>
</svg>
